{"title":"Neowolf 2010 DvDRip XviD Feel-Free","uid":5903170,"size":827785208,"categoryP":"video","categoryS":"movies","magnet":"?xt=urn:btih:0eeac1a56426dd252c4c554878212bfd444d023a&amp;dn=Neowolf+2010+DvDRip+XviD+Feel-Free&amp;tr=udp%3A%2F%2Ftracker.openbittorrent.com%3A80&amp;tr=udp%3A%2F%2Fopen.demonii.com%3A1337&amp;tr=udp%3A%2F%2Ftracker.coppersurfer.tk%3A6969&amp;tr=udp%3A%2F%2Fexodus.desync.com%3A6969","seeders":0,"leechers":1,"uploader":"neon","files":-1,"time":1287745143,"description":"When an aspiring rock musician TONY returns to his college town to make up with his estranged girlfriend ROSEMARY, he finds his life taking an unexpected turn to the dark side when he encounters a mysterious rock band NEOWOLF led by rocker VINCE and the alluring band girl PAULA. When Rosemary's best friend KEVIN turns up dead, Rosemary seeks out a Nursery owner MRS. BELAKOV who knows the secrets of an ancient evil.\n\nGenre:Horror | Thriller\nLanguage:English\n &lt;a href=&quot; http://www.imdb.com/title/tt0847215/&quot; rel=&quot;nofollow&quot; target=&quot;_NEW&quot;&gt; http://www.imdb.com/title/tt0847215/&lt;/a&gt;\nSource:DVD\n &lt;a href=&quot;\nhttp://www.youtube.com/watch?v=F_PgDtZd9fg&amp;feature=player_embedded&quot; rel=&quot;nofollow&quot; target=&quot;_NEW&quot;&gt;\nhttp://www.youtube.com/watch?v=F_PgDtZd9fg&amp;feature=player_embedded&lt;/a&gt;\n\nGeneral\nComplete name :Neowolf 2010 DvDRip XviD Feel-Free\nFormat : AVI\nFormat/Info : Audio Video Interleave\nFile size : 789 MiB\nDuration : 1h 27mn\nOverall bit rate : 1 254 Kbps\nVideo #0\nMuxing mode : Packed bitstream\nCodec ID : XVID\nCodec ID/Hint : XviD\nDuration : 1h 27mn\nBit rate : 797 Kbps\nWidth : 720 pixels\nHeight : 384 pixels\nDisplay aspect ratio : 1.875\nFrame rate : 23.976 fps\nResolution : 24 bits\nColorimetry : 4:2:0\nScan type : Progressive\nBits/(Pixel*Frame) : 0.120\nStream size : 501 MiB (64%)\nWriting library : XviD 1.3.0.dev55\nAudio #1\nID : 1\nFormat : AC-3\nFormat/Info : Audio Coding 3\nCodec ID : 2000\nDuration : 1h 27mn\nBit rate mode : Constant\nBit rate : 448 Kbps\nChannel(s) : 6 channels\nChannel positions : Front: L C R, Surround: L R, LFE\nSampling rate : 48.0 KHz\nStream size : 282 MiB (36%)\nAlignment : Split accross interleaves\nInterleave, duration : 42 ms (1.00 video frame)\nInterleave, preload duration : 500 ms\n\nGeneral\nComplete name :Neowolf 2010 DvDRip XviD Feel-Free\nFormat : AVI\nFormat/Info : Audio Video Interleave\nFile size : 789 MiB\nDuration : 1h 27mn\nOverall bit rate : 1 254 Kbps\nVideo #0\nMuxing mode : Packed bitstream\nCodec ID : XVID\nCodec ID/Hint : XviD\nDuration : 1h 27mn\nBit rate : 797 Kbps\nWidth : 720 pixels\nHeight : 384 pixels\nDisplay aspect ratio : 1.875\nFrame rate : 23.976 fps\nResolution : 24 bits\nColorimetry : 4:2:0\nScan type : Progressive\nBits/(Pixel*Frame) : 0.120\nStream size : 501 MiB (64%)\nWriting library : XviD 1.3.0.dev55\nAudio #1\nID : 1\nFormat : AC-3\nFormat/Info : Audio Coding 3\nCodec ID : 2000\nDuration : 1h 27mn\nBit rate mode : Constant\nBit rate : 448 Kbps\nChannel(s) : 6 channels\nChannel positions : Front: L C R, Surround: L R, LFE\nSampling rate : 48.0 KHz\nStream size : 282 MiB (36%)\nAlignment : Split accross interleaves\nInterleave, duration : 42 ms (1.00 video frame)\nInterleave, preload duration : 500 ms","torrent":{"xt":"urn:btih:0eeac1a56426dd252c4c554878212bfd444d023a","amp;dn":"Neowolf+2010+DvDRip+XviD+Feel-Free","amp;tr":["udp%3A%2F%2Ftracker.openbittorrent.com%3A80","udp%3A%2F%2Fopen.demonii.com%3A1337","udp%3A%2F%2Ftracker.coppersurfer.tk%3A6969","udp%3A%2F%2Fexodus.desync.com%3A6969"],"infoHash":"0eeac1a56426dd252c4c554878212bfd444d023a","infoHashBuffer":{"type":"Buffer","data":[14,234,193,165,100,38,221,37,44,76,85,72,120,33,43,253,68,77,2,58]},"announce":[],"urlList":[]}}